<svg width="16" height="16" viewBox="0 0 16 16" fill="none" xmlns="http://www.w3.org/2000/svg">
<path fill-rule="evenodd" clip-rule="evenodd" d="M10.8572 2C11.1728 2 11.4286 2.26863 11.4286 2.6V13.4C11.4286 13.7314 11.1728 14 10.8572 14C10.5416 14 10.2857 13.7314 10.2857 13.4V2.6C10.2857 2.26863 10.5416 2 10.8572 2Z" fill="#989AA0"/>
<path fill-rule="evenodd" clip-rule="evenodd" d="M3.02455 11.1757C3.2477 10.9414 3.60951 10.9414 3.83267 11.1757L5.14289 12.5515L6.45312 11.1757C6.67627 10.9414 7.03808 10.9414 7.26124 11.1757C7.4844 11.4101 7.4844 11.7899 7.26124 12.0243L5.54695 13.8243C5.3238 14.0586 4.96199 14.0586 4.73883 13.8243L3.02455 12.0243C2.80139 11.7899 2.80139 11.4101 3.02455 11.1757Z" fill="#989AA0"/>
<path fill-rule="evenodd" clip-rule="evenodd" d="M5.14289 2C5.45848 2 5.71432 2.26863 5.71432 2.6V13.4C5.71432 13.7314 5.45848 14 5.14289 14C4.8273 14 4.57146 13.7314 4.57146 13.4V2.6C4.57146 2.26863 4.8273 2 5.14289 2Z" fill="#989AA0"/>
<path fill-rule="evenodd" clip-rule="evenodd" d="M10.4531 2.17574C10.6763 1.94142 11.0381 1.94142 11.2612 2.17574L12.9755 3.97574C13.1987 4.21005 13.1987 4.58995 12.9755 4.82426C12.7524 5.05858 12.3906 5.05858 12.1674 4.82426L10.8572 3.44853L9.54695 4.82426C9.3238 5.05858 8.96199 5.05858 8.73883 4.82426C8.51567 4.58995 8.51567 4.21005 8.73883 3.97574L10.4531 2.17574Z" fill="#989AA0"/>
</svg>
