<svg fill="none" height="512" viewBox="0 0 24 24" width="512" xmlns="http://www.w3.org/2000/svg"><g fill="rgb(0,0,0)"><path d="m12 18c-.5523 0-1-.4477-1-1v-10c0-.55229.4477-1 1-1s1 .44772 1 1v10c0 .5523-.4477 1-1 1z"/><path d="m17.7929 10.2071.7929.7929h-2.5858c-.5523 0-1 .4477-1 1s.4477 1 1 1h2.5858l-.7929.7929c-.3905.3905-.3905 1.0237 0 1.4142s1.0237.3905 1.4142 0l2.5-2.5c.3905-.3905.3905-1.0237 0-1.4142l-2.5-2.50001c-.3905-.39052-1.0237-.39052-1.4142 0-.3905.39053-.3905 1.02369 0 1.41421z"/><path d="m5.41421 13 .7929.7929c.39052.3905.39052 1.0237 0 1.4142-.39053.3905-1.02369.3905-1.41422 0l-2.5-2.5c-.18753-.1875-.29289-.4419-.29289-.7071s.10536-.5196.29289-.7071l2.5-2.50001c.39053-.39052 1.02369-.39052 1.41422 0 .39052.39053.39052 1.02369 0 1.41421l-.7929.7929h2.58579c.55228 0 1 .4477 1 1s-.44772 1-1 1z"/></g></svg>